<svg id="Layer_1" xmlns="http://www.w3.org/2000/svg" viewBox="0 0 543 134.9"><style>.st0,.st1{fill:#003b74}.st1{stroke:#003b74;stroke-width:2;stroke-linejoin:round;stroke-miterlimit:10}</style><path id="XMLID_87_" class="st0" d="M461.7 104.4c3 .3 5 .6 7.5.9v10.2h-26.7v-10.2c2-.5 4.2-1 6.4-1.5V69.2c-2.3-.3-4.2-.6-6.6-.9V57.7h19.3c.1 15.4.1 30.8.1 46.7z"/><path id="XMLID_86_" class="st0" d="M476 57.6c5.5.1 10.6 5.4 10.5 11-.1 5.9-4.8 10.4-10.9 10.4-6 0-10.7-4.5-10.8-10.5-.1-5.8 5.2-11 11.2-10.9z"/><path id="XMLID_5_" class="st1" d="M42.5 113.3c-6 0-11.4-1.7-16.4-5.1-4.9-3.4-8.8-8.1-11.7-14-2.9-5.9-4.3-12.4-4.3-19.6 0-7.1 1.4-13.6 4.3-19.5s6.8-10.6 11.7-14C31 37.7 36.5 36 42.5 36c4.9 0 9.5 1.2 13.8 3.6 4.3 2.4 8 5.7 11.1 10.1L60 56c-2.2-3.1-4.8-5.5-7.8-7.1-3-1.7-6.2-2.5-9.7-2.5-4.2 0-8.1 1.2-11.6 3.7s-6.3 5.9-8.4 10.2c-2 4.3-3.1 9.1-3.1 14.3 0 5.3 1 10 3.1 14.4 2 4.3 4.8 7.8 8.4 10.2 3.5 2.5 7.4 3.7 11.6 3.7 3.5 0 6.7-.8 9.7-2.5 3-1.7 5.6-4.1 7.8-7.1l7.4 6.3c-3 4.3-6.7 7.7-11.1 10.1-4.3 2.4-8.9 3.6-13.8 3.6z"/><path id="XMLID_7_" class="st1" d="M93.9 112.5c-4.3 0-8.2-1.2-11.8-3.7-3.6-2.5-6.4-5.8-8.5-10-2.1-4.2-3.1-8.9-3.1-14s1-9.8 3.1-14.1c2.1-4.3 4.9-7.6 8.5-10.1 3.6-2.5 7.5-3.7 11.8-3.7 4.3 0 8.2 1.2 11.8 3.7 3.6 2.5 6.4 5.8 8.5 10.1 2.1 4.3 3.1 8.9 3.1 14.1 0 5.1-1 9.8-3.1 14-2.1 4.2-4.9 7.6-8.5 10-3.5 2.4-7.5 3.7-11.8 3.7zm0-45.5c-2.7 0-5.2.8-7.4 2.4-2.2 1.6-3.9 3.7-5.2 6.4-1.3 2.7-1.9 5.7-1.9 9s.6 6.4 1.9 9.1c1.3 2.7 3 4.8 5.2 6.3s4.7 2.3 7.4 2.3 5.1-.8 7.3-2.3c2.2-1.5 3.9-3.6 5.2-6.3 1.3-2.7 1.9-5.7 1.9-9.1 0-3.3-.6-6.4-1.9-9-1.3-2.7-3-4.8-5.2-6.4-2.1-1.7-4.6-2.4-7.3-2.4z"/><path id="XMLID_10_" class="st1" d="M168.3 40v71.6h-9v-4.8c-2 1.8-4.2 3.3-6.6 4.2-2.5 1-5 1.5-7.7 1.5-4.3 0-8.2-1.2-11.8-3.7-3.6-2.5-6.4-5.8-8.5-10-2.1-4.2-3.1-8.9-3.1-14s1-9.8 3.1-14.1c2.1-4.3 4.9-7.6 8.5-10.1 3.6-2.5 7.5-3.7 11.8-3.7 2.7 0 5.3.5 7.7 1.5 2.5 1 4.7 2.5 6.6 4.3V40h9zm-16.1 60.1c2.2-1.5 3.9-3.6 5.2-6.3 1.3-2.7 1.9-5.7 1.9-9.1 0-3.3-.6-6.4-1.9-9-1.3-2.7-3-4.8-5.2-6.4-2.2-1.6-4.6-2.4-7.3-2.4s-5.2.8-7.4 2.4c-2.2 1.6-3.9 3.7-5.2 6.4-1.3 2.7-1.9 5.7-1.9 9s.6 6.4 1.9 9.1c1.3 2.7 3 4.8 5.2 6.3s4.7 2.3 7.4 2.3 5.1-.7 7.3-2.3z"/><path id="XMLID_13_" class="st1" d="M218.7 89.8h-35.9c.9 3.8 2.5 6.8 5.1 9.2 2.5 2.4 5.5 3.5 8.8 3.5 2.1 0 4-.5 5.8-1.4 1.8-.9 3.3-2.3 4.7-4l6.9 6.5c-2.3 2.9-4.9 5.1-7.9 6.6s-6.2 2.3-9.5 2.3c-4.3 0-8.2-1.2-11.8-3.7-3.6-2.5-6.4-5.8-8.5-10-2.1-4.2-3.1-8.9-3.1-14 0-5.2 1-9.9 3-14.2 2-4.3 4.7-7.6 8.2-10 3.5-2.4 7.3-3.6 11.6-3.6 4.2 0 8.1 1.2 11.6 3.6 3.5 2.4 6.2 5.8 8.2 10 2 4.3 3 9 3 14.2v5zm-9.5-10.1c-.8-3.7-2.3-6.8-4.6-9.2-2.3-2.4-5.1-3.6-8.6-3.6-3.4 0-6.3 1.2-8.6 3.6-2.3 2.4-3.8 5.5-4.6 9.2h26.4z"/><path id="XMLID_16_" class="st1" d="M234.3 48.3v21.3h18.4v10.3h-18.4v31.6H225V38h41.3v10.3h-32z"/><path id="XMLID_18_" class="st1" d="M293.5 59.7c3.2 1.8 5.7 4.4 7.5 7.6 1.8 3.2 2.7 6.9 2.7 10.9v33.3h-9v-1.9c-3.3 1.9-6.9 2.9-11 2.9-3.7 0-7.1-.8-10.1-2.4-3.1-1.6-5.5-3.7-7.3-6.4-1.8-2.7-2.7-5.7-2.7-9s.9-6.3 2.7-9c1.8-2.7 4.2-4.9 7.3-6.4 3.1-1.6 6.4-2.4 10.1-2.4 3.9 0 7.5 1 11 2.9v-1.5c0-3.3-1.1-6-3.4-8.1-2.2-2.1-5.1-3.2-8.5-3.2-2.1 0-4.1.5-5.8 1.4-1.7.9-3.1 2.2-4.2 3.7l-7.4-5.8c1.9-2.9 4.4-5.2 7.4-6.9 3-1.6 6.4-2.5 10-2.5 3.9 0 7.5 1 10.7 2.8zm-2 40.5c2.1-1.5 3.2-3.3 3.2-5.5s-1.1-4-3.2-5.5-4.7-2.2-7.7-2.2c-3.1 0-5.7.8-7.8 2.3-2.1 1.5-3.2 3.4-3.2 5.5s1.1 3.9 3.2 5.5c2.1 1.5 4.8 2.3 7.8 2.3 2.9-.2 5.5-.9 7.7-2.4z"/><path id="XMLID_21_" class="st1" d="M333.6 112.5c-4.4 0-8.3-1.2-11.9-3.7-3.6-2.5-6.4-5.8-8.5-10-2.1-4.2-3.1-8.9-3.1-14s1-9.8 3.1-14.1c2.1-4.3 4.9-7.6 8.5-10.1 3.6-2.5 7.6-3.7 11.9-3.7 3.4 0 6.6.8 9.6 2.3 3 1.5 5.6 3.7 7.8 6.6l-6.8 6.5c-2.9-3.6-6.4-5.4-10.6-5.4-2.7 0-5.2.8-7.4 2.4-2.2 1.6-4 3.7-5.2 6.4-1.3 2.7-1.9 5.7-1.9 9s.6 6.4 1.9 9.1c1.3 2.7 3 4.8 5.2 6.3s4.7 2.3 7.4 2.3c4.2 0 7.7-1.8 10.6-5.4l6.8 6.5c-2.2 2.9-4.8 5.1-7.8 6.6-3 1.6-6.2 2.4-9.6 2.4z"/><path id="XMLID_23_" class="st1" d="M389.8 109.2c-2.8 2.2-6 3.3-9.4 3.3-3.1 0-6-.9-8.6-2.6-2.6-1.7-4.6-4.1-6.1-7.2-1.5-3-2.3-6.4-2.3-10.1V67.8H355v-10h8.4V40h9v17.8h12.9v10h-12.9v24.8c0 2.8.8 5.1 2.3 7 1.5 1.9 3.4 2.8 5.7 2.8 1.6 0 3-.5 4.2-1.4l5.2 8.2z"/><path id="XMLID_25_" class="st1" d="M415.4 112.5c-4.3 0-8.2-1.2-11.8-3.7-3.6-2.5-6.4-5.8-8.5-10-2.1-4.2-3.1-8.9-3.1-14s1-9.8 3.1-14.1c2.1-4.3 4.9-7.6 8.5-10.1 3.6-2.5 7.5-3.7 11.8-3.7 4.3 0 8.2 1.2 11.8 3.7 3.6 2.5 6.4 5.8 8.5 10.1 2.1 4.3 3.1 8.9 3.1 14.1 0 5.1-1 9.8-3.1 14-2.1 4.2-4.9 7.6-8.5 10-3.5 2.4-7.5 3.7-11.8 3.7zm0-45.5c-2.7 0-5.2.8-7.4 2.4-2.2 1.6-3.9 3.7-5.2 6.4-1.3 2.7-1.9 5.7-1.9 9s.6 6.4 1.9 9.1c1.3 2.7 3 4.8 5.2 6.3s4.7 2.3 7.4 2.3 5.1-.8 7.3-2.3c2.2-1.5 3.9-3.6 5.2-6.3 1.3-2.7 1.9-5.7 1.9-9.1 0-3.3-.6-6.4-1.9-9-1.3-2.7-3-4.8-5.2-6.4-2.1-1.7-4.6-2.4-7.3-2.4z"/><path id="XMLID_30_" class="st1" d="M535 57.9l-21.4 61c-1.5 4.5-3.7 8.3-6.4 11.4-2.7 3.1-6.3 4.7-10.6 4.7-2.7 0-5.2-.7-7.5-2l4.1-8.9c1 .6 2.2.9 3.4.9 1.4 0 2.9-.6 4.3-1.7 1.5-1.1 2.9-3.8 4.2-7.9v-.1l1.6-4.4L488.2 58h9.7l13.7 39.1L525.3 58h9.7z"/></svg>