<svg xmlns="http://www.w3.org/2000/svg" viewBox="0 0 639 406"><style>.st0{fill:#003b74}.st1{fill:#c6d5d5}.st2{fill:#afd7e8}.st3{fill:#dde6e6}.st4{fill:#fff}.st5{fill:#b2c4cb}.st6{fill:#9ab1b7}.st7{fill:#e5f2f7}.st8{fill:#fcded4}.st9{fill:#a0d0e4}.st10{fill:#b7dceb}.st11{fill:#4daabf}.st12{fill:#de5a63}.st13{fill:#fd0}.st14{fill:#a1b400}.st15{fill:#6bb6d5}.st16{opacity:.3}</style><g id="Layer_1"><g id="monitor"><path id="XMLID_205_" class="st0" d="M400.3 42.5c0-3.5-2.8-6.3-6.3-6.3H106.9c-3.4 0-6.2 2.8-6.2 6.3v199.6h299.7V42.5z"/><path id="XMLID_204_" class="st1" d="M100.6 242.2v8.9c0 3.5 2.8 6.3 6.2 6.3H394c3.5 0 6.3-2.8 6.3-6.3v-8.9H100.6z"/><path id="XMLID_203_" class="st2" d="M112.5 47.8h275.9v183.6H112.5z"/><path id="XMLID_202_" class="st3" d="M294.8 286.6c0-10.3.2-28.8.2-28.8h-79.2s.5 18.1.5 28.8h78.5z"/><path id="XMLID_201_" class="st1" d="M216.3 286.6c-4.7 2.4-20.6 10.5-20.7 11.2h119.6c-.1-.6-.4-1.3-1-1.6-8.9-3.7-11-5.1-19.4-9.6h-78.5z"/><path id="XMLID_200_" class="st0" d="M196.5 300.7H314v3.9H196.5z"/><path id="XMLID_199_" class="st4" d="M195.6 297.8c-.1.5-.1.9.1 1.4.4 1.1 1.4 1.8 2.5 1.8h114.3c1.2 0 2.2-.7 2.6-1.8.2-.5.2-.9.1-1.4H195.6z"/><path id="XMLID_198_" class="st5" d="M295 257.4h-79.1v.4H295v-.4z"/><path id="XMLID_197_" class="st5" d="M295 257.4h-79.1H295z"/><path id="XMLID_196_" class="st6" d="M295 257.8h-79.1v3.4H295v-3.4z"/></g><g id="ruler_1_"><path id="XMLID_195_" class="st7" d="M623.2 43.9V24.5l-204.8.2.1 19.3 204.7-.1z"/><path id="XMLID_194_" class="st8" d="M623.2 24.9v13.5h.2l-.2-13.5z"/><path id="XMLID_193_" class="st9" d="M623.2 24.9H419.8v13.5h203.4V24.9z"/><path id="XMLID_192_" class="st2" d="M428.2 42.7c-.2 0-.4-.2-.4-.4V40c0-.2.2-.4.4-.4s.4.2.4.4v2.4c.1.2-.1.3-.4.3z"/><path id="XMLID_191_" class="st2" d="M442.6 42.7c-.2 0-.4-.2-.4-.4V40c0-.2.2-.4.4-.4s.4.2.4.4v2.4c.1.2-.1.3-.4.3z"/><path id="XMLID_190_" class="st2" d="M457.1 42.7c-.2 0-.4-.2-.4-.4V40c0-.2.2-.4.4-.4s.4.2.4.4v2.4c0 .2-.2.3-.4.3z"/><path id="XMLID_189_" class="st2" d="M471.5 42.7c-.2 0-.4-.2-.4-.4V40c0-.2.2-.4.4-.4s.4.2.4.4v2.4c0 .2-.2.3-.4.3z"/><path id="XMLID_188_" class="st2" d="M485.9 42.7c-.2 0-.4-.2-.4-.4V40c0-.2.2-.4.4-.4s.4.2.4.4v2.4c.1.2-.1.3-.4.3z"/><path id="XMLID_187_" class="st2" d="M500.4 42.7c-.2 0-.4-.2-.4-.4V40c0-.2.2-.4.4-.4s.4.2.4.4v2.4c0 .2-.2.3-.4.3z"/><path id="XMLID_186_" class="st2" d="M514.8 42.7c-.2 0-.4-.2-.4-.4V40c0-.2.2-.4.4-.4s.4.2.4.4v2.4c0 .2-.2.3-.4.3z"/><path id="XMLID_185_" class="st2" d="M529.2 42.7c-.2 0-.4-.2-.4-.4V40c0-.2.2-.4.4-.4s.4.2.4.4v2.4c.1.2-.1.3-.4.3z"/><path id="XMLID_184_" class="st2" d="M543.6 42.7c-.2 0-.4-.2-.4-.4V40c0-.2.2-.4.4-.4s.4.2.4.4v2.4c.1.2-.1.3-.4.3z"/><path id="XMLID_183_" class="st2" d="M558.1 42.7c-.2 0-.4-.2-.4-.4V40c0-.2.2-.4.4-.4s.4.2.4.4v2.4c0 .2-.2.3-.4.3z"/><path id="XMLID_182_" class="st2" d="M572.5 42.7c-.2 0-.4-.2-.4-.4V40c0-.2.2-.4.4-.4s.4.2.4.4v2.4c0 .2-.2.3-.4.3z"/><path id="XMLID_181_" class="st2" d="M586.9 42.7c-.2 0-.4-.2-.4-.4V40c0-.2.2-.4.4-.4s.4.2.4.4v2.4c.1.2-.1.3-.4.3z"/><path id="XMLID_180_" class="st2" d="M601.4 42.7c-.2 0-.4-.2-.4-.4V40c0-.2.2-.4.4-.4s.4.2.4.4v2.4c0 .2-.2.3-.4.3z"/><path id="XMLID_179_" class="st2" d="M615.8 42.7c-.2 0-.4-.2-.4-.4V40c0-.2.2-.4.4-.4s.4.2.4.4v2.4c0 .2-.2.3-.4.3z"/></g><g id="mouse_and_keyboard"><g id="XMLID_350_"><path id="XMLID_92_" class="st2" d="M226.8 364.8h62.5v4.5h-62.5z"/><path id="XMLID_91_" class="st2" d="M216.4 345.4h6v6h-6z"/><path id="XMLID_90_" class="st2" d="M216.4 354.4h6v5.2h-6z"/><path id="XMLID_89_" class="st2" d="M226.1 345.4h6v6h-6z"/><path id="XMLID_88_" class="st2" d="M226.1 354.4h6v5.2h-6z"/><path id="XMLID_87_" class="st2" d="M235.8 345.4h6v6h-6z"/><path id="XMLID_86_" class="st2" d="M235.8 354.4h6v5.2h-6z"/><path id="XMLID_85_" class="st2" d="M244.7 345.4h6v6h-6z"/><path id="XMLID_84_" class="st2" d="M244.7 354.4h6v5.2h-6z"/><path id="XMLID_83_" class="st2" d="M254.4 345.4h6v6h-6z"/><path id="XMLID_82_" class="st2" d="M254.4 354.4h6v5.2h-6z"/><path id="XMLID_81_" class="st2" d="M264.1 345.4h6v6h-6z"/><path id="XMLID_80_" class="st2" d="M264.1 354.4h6v5.2h-6z"/><path id="XMLID_79_" class="st2" d="M274.5 345.4h5.2v6h-5.2z"/><path id="XMLID_78_" class="st2" d="M274.5 354.4h5.2v5.2h-5.2z"/><path id="XMLID_77_" class="st2" d="M283.4 345.4h5.2v6h-5.2z"/><path id="XMLID_76_" class="st2" d="M283.4 354.4h5.2v5.2h-5.2z"/><path id="XMLID_75_" class="st2" d="M293.1 345.4h6v6h-6z"/><path id="XMLID_74_" class="st2" d="M293.1 354.4h6v5.2h-6z"/></g><path id="XMLID_73_" class="st10" d="M518.6 267.1h-22c-9 0-16.4 6.5-16.4 14.6v1.7h-95.4c-5.8 0-10.5 4.7-10.5 10.5v4.4c0 5.8 4.7 10.5 10.5 10.5h41.9c4.4 0 7.9 3.6 7.9 7.9v3.2c0 4.4-3.6 7.9-7.9 7.9h-125c-7 0-10.5 2.6-10.5 7.7h2.5c0-2.5.9-5.1 7.9-5.1h125.1c5.8 0 10.5-4.7 10.5-10.5v-3.2c0-5.8-4.7-10.5-10.5-10.5h-41.9c-4.4 0-7.9-3.6-7.9-7.9v-4.4c0-4.4 3.6-7.9 7.9-7.9h95.4v-1.3H535v-3c0-8.1-7.3-14.6-16.4-14.6z"/><path id="XMLID_346_" class="st10" d="M311.4 378.9H202.8v-43.4h108.7v43.4zm-107-1.6h105.4v-40.1H204.4v40.1z"/></g><g id="pages"><path id="XMLID_70_" class="st4" d="M123.8 59.8h252v162.5h-252z"/><path id="XMLID_69_" class="st7" d="M316.7 59.9h158.2v162.6H316.7z"/><path id="XMLID_68_" class="st7" d="M474 60h158.2v162.4H474z"/><path id="XMLID_67_" class="st2" d="M143.6 86h151.7v46.3H143.6z"/><path id="XMLID_66_" class="st10" d="M488.5 96.4h36.9v36.9h-36.9z"/><path id="XMLID_65_" class="st9" d="M333 85.3h29.7v29.8H333z"/><path id="XMLID_64_" class="st11" d="M372.5 87.2h29.7v4.9h-29.7z"/><path id="XMLID_63_" class="st9" d="M372.5 99.8h43.6v4.9h-43.6z"/><path id="XMLID_62_" class="st9" d="M372.5 108.5h43.6v4.9h-43.6z"/><g id="XMLID_307_"><path id="XMLID_61_" class="st9" d="M333 130.3h29.7v29.8H333z"/><path id="XMLID_60_" class="st11" d="M372.5 131.4h29.7v4.9h-29.7z"/><path id="XMLID_59_" class="st11" d="M488.7 136.6h36.8v2.8h-36.8z"/><path id="XMLID_58_" class="st11" d="M534.3 136.6h36.8v2.8h-36.8z"/><path id="XMLID_57_" class="st11" d="M581.1 136.6h36.8v2.8h-36.8z"/><path id="XMLID_56_" class="st11" d="M488.7 194.2h36.8v2.8h-36.8z"/><path id="XMLID_55_" class="st11" d="M534.3 194.2h36.8v2.8h-36.8z"/><path id="XMLID_54_" class="st11" d="M581.1 194.2h36.8v2.8h-36.8z"/><path id="XMLID_53_" class="st11" d="M516.7 79.5h72.7v2.8h-72.7z"/><path id="XMLID_52_" class="st9" d="M372.5 144.1h43.6v4.9h-43.6z"/><path id="XMLID_51_" class="st9" d="M372.5 152.8h43.6v4.9h-43.6z"/></g><g id="XMLID_300_"><path id="XMLID_50_" class="st9" d="M333 177.5h29.7v29.8H333z"/><path id="XMLID_49_" class="st11" d="M372.5 178.7h29.7v4.9h-29.7z"/><path id="XMLID_48_" class="st9" d="M372.5 191.3h43.6v4.9h-43.6z"/><path id="XMLID_47_" class="st9" d="M372.5 200h43.6v4.9h-43.6z"/></g><path id="XMLID_46_" class="st10" d="M534.3 96.4h36.9v36.9h-36.9z"/><path id="XMLID_45_" class="st10" d="M581.2 96.4h36.9v36.9h-36.9z"/><path id="XMLID_44_" class="st10" d="M488.5 153.7h36.9v36.9h-36.9z"/><path id="XMLID_43_" class="st10" d="M534.3 153.7h36.9v36.9h-36.9z"/><path id="XMLID_42_" class="st10" d="M581.2 153.7h36.9v36.9h-36.9z"/><path id="XMLID_41_" class="st2" d="M143.6 202.4h151.7v12.1H143.6z"/><path id="XMLID_40_" class="st4" d="M281.6 112.6l5-5-5-4.1z"/><path id="XMLID_39_" class="st4" d="M156.2 112.6l-5-5 5-4.1z"/><g id="XMLID_285_"><g id="XMLID_286_"><path id="XMLID_38_" class="st12" d="M135.2 67.1c0-1.6-1.3-3-3-3-1.6 0-3 1.3-3 3 0 1.6 1.3 3 3 3 1.6 0 3-1.4 3-3z"/><circle id="XMLID_37_" class="st13" cx="141.9" cy="67.1" r="3"/><circle id="XMLID_36_" class="st14" cx="150.8" cy="67.1" r="3"/></g></g><g id="XMLID_283_"><path id="XMLID_35_" class="st2" d="M250.9 150.6h44.4v40.5h-44.4z"/></g><g id="XMLID_281_"><path id="XMLID_34_" class="st2" d="M197.3 150.6h44.4v40.5h-44.4z"/></g><g id="XMLID_279_"><path id="XMLID_33_" class="st2" d="M143.7 150.6h44.4v40.5h-44.4z"/></g><path id="XMLID_32_" class="st9" d="M199.4 78.7h95.7v3h-95.7z"/><path id="XMLID_31_" class="st9" d="M143.5 78.7h34.1v3h-34.1z"/><g id="XMLID_273_"><circle id="XMLID_30_" class="st9" cx="208.5" cy="138.4" r="2.9"/><path id="XMLID_29_" class="st9" d="M222.3 138.4c0-1.6-1.3-2.9-2.9-2.9-1.6 0-2.9 1.3-2.9 2.9 0 1.6 1.3 2.9 2.9 2.9 1.7 0 2.9-1.3 2.9-2.9z"/><circle id="XMLID_28_" class="st9" cx="230.4" cy="138.4" r="2.9"/></g><path id="XMLID_27_" class="st11" d="M148.5 157.7h33.8v4.5h-33.8z"/><path id="XMLID_26_" class="st15" d="M148.5 170.8h33.8v3.2h-33.8z"/><path id="XMLID_25_" class="st15" d="M148.5 176.6h26.2v3.2h-26.2z"/><path id="XMLID_24_" class="st11" d="M201.5 157.7h33.8v4.5h-33.8z"/><path id="XMLID_23_" class="st15" d="M201.5 170.8h33.8v3.2h-33.8z"/><path id="XMLID_22_" class="st15" d="M201.5 176.6h26.2v3.2h-26.2z"/><path id="XMLID_21_" class="st15" d="M148.3 208.6h26.2v2.4h-26.2z"/><path id="XMLID_20_" class="st11" d="M254.4 157.7h33.8v4.5h-33.8z"/><path id="XMLID_19_" class="st15" d="M254.4 170.8h33.8v3.2h-33.8z"/><path id="XMLID_18_" class="st15" d="M254.4 176.6h26.2v3.2h-26.2z"/><path id="XMLID_17_" class="st16" d="M123.7 222.5h193.1v.9H123.7z"/><g id="XMLID_252_" class="st16"><path id="XMLID_16_" d="M400.4 222.7V235l74.4-12.1-9.1-.2h-65.3z"/><path id="XMLID_15_" d="M388.5 222.7v8.8h-14.8l26.7 3.5v-12.3h-11.9z"/><path id="XMLID_3_" d="M316.9 222.7v.7h-3l59.8 8.1h14.8v-8.8h-71.6z"/></g></g></g><g id="Layer_2"><g id="tablet_2_"><g id="XMLID_13_"><path id="XMLID_206_" class="st1" d="M43.5 297.6c0 2.6 2.1 4.7 4.7 4.7H154c2.6 0 4.7-2 4.7-4.6l.1-139c0-2.6-2.1-4.7-4.7-4.7l-105.8-.1c-1.2 0-2.4.5-3.3 1.4-.9.9-1.4 2.1-1.4 3.3l-.1 139z"/><path id="XMLID_14_" class="st4" d="M148.6 163.4H53.7V287h94.8z"/></g></g><g id="phone_2_"><path id="XMLID_8_" class="st0" d="M66.1 298.2c0 3-2.2 5.4-4.9 5.4H13.6c-2.7 0-4.8-2.4-4.8-5.4v-90.7c0-3 2.2-5.4 4.8-5.4h47.7c2.7 0 4.9 2.4 4.9 5.4v90.7z"/><path id="XMLID_7_" class="st7" d="M13.3 210h48.1v77.3H13.3z"/></g></g></svg>