<svg id="main-image-bg" xmlns="http://www.w3.org/2000/svg" viewBox="-160 78 639 406"><style>.st0{fill:#003b74}.st1{fill:#c6d5d5}.st2{fill:#afd7e8}.st3{fill:#dde6e6}.st4{fill:#fff}.st5{fill:#b2c4cb}.st6{fill:#9ab1b7}.st7{fill:#e5f2f7}.st8{fill:#fcded4}.st9{fill:#a0d0e4}.st10{fill:#b7dceb}.st11{enable-background:new}.st11,.st12{opacity:.3}.st13{fill:#4daabf}.st14{fill:#de5a63}.st15{fill:#fd0}.st16{fill:#a1b400}.st17{fill:#6bb6d5}</style><g id="computer"><g id="monitor"><path id="XMLID_205_" class="st0" d="M240.3 120.5c0-3.5-2.8-6.3-6.3-6.3H-53.1c-3.4 0-6.2 2.8-6.2 6.3v199.6h299.7V120.5h-.1z"/><path id="XMLID_204_" class="st1" d="M-59.4 320.2v8.9c0 3.5 2.8 6.3 6.2 6.3H234c3.5 0 6.3-2.8 6.3-6.3v-8.9H-59.4z"/><path id="XMLID_203_" class="st2" d="M-47.5 125.8h275.9v183.6H-47.5z"/><path id="XMLID_202_" class="st3" d="M134.8 364.6c0-10.3.2-28.8.2-28.8H55.8s.5 18.1.5 28.8h78.5z"/><path id="XMLID_201_" class="st1" d="M56.3 364.6c-4.7 2.4-20.6 10.5-20.7 11.2h119.6c-.1-.6-.4-1.3-1-1.6-8.9-3.7-11-5.1-19.4-9.6H56.3z"/><path id="XMLID_200_" class="st0" d="M36.5 378.7H154v3.9H36.5z"/><path id="XMLID_199_" class="st4" d="M35.6 375.8c-.1.5-.1.9.1 1.4.4 1.1 1.4 1.8 2.5 1.8h114.3c1.2 0 2.2-.7 2.6-1.8.2-.5.2-.9.1-1.4H35.6z"/><path id="XMLID_198_" class="st5" d="M135 335.4H55.9v.4H135z"/><path id="XMLID_197_" class="st5" d="M135 335.4H55.9 135z"/><path id="XMLID_196_" class="st6" d="M135 335.8H55.9v3.4H135z"/></g><g id="ruler_1_"><path id="XMLID_195_" class="st7" d="M463.2 121.9v-19.4l-204.8.2.1 19.3z"/><path id="XMLID_194_" class="st8" d="M463.2 102.9v13.5h.2z"/><path id="XMLID_193_" class="st9" d="M463.2 102.9H259.8v13.5h203.4z"/><path id="XMLID_192_" class="st2" d="M268.2 120.7c-.2 0-.4-.2-.4-.4V118c0-.2.2-.4.4-.4s.4.2.4.4v2.4c.1.2-.1.3-.4.3z"/><path id="XMLID_191_" class="st2" d="M282.6 120.7c-.2 0-.4-.2-.4-.4V118c0-.2.2-.4.4-.4s.4.2.4.4v2.4c.1.2-.1.3-.4.3z"/><path id="XMLID_190_" class="st2" d="M297.1 120.7c-.2 0-.4-.2-.4-.4V118c0-.2.2-.4.4-.4s.4.2.4.4v2.4c0 .2-.2.3-.4.3z"/><path id="XMLID_189_" class="st2" d="M311.5 120.7c-.2 0-.4-.2-.4-.4V118c0-.2.2-.4.4-.4s.4.2.4.4v2.4c0 .2-.2.3-.4.3z"/><path id="XMLID_188_" class="st2" d="M325.9 120.7c-.2 0-.4-.2-.4-.4V118c0-.2.2-.4.4-.4s.4.2.4.4v2.4c.1.2-.1.3-.4.3z"/><path id="XMLID_187_" class="st2" d="M340.4 120.7c-.2 0-.4-.2-.4-.4V118c0-.2.2-.4.4-.4s.4.2.4.4v2.4c0 .2-.2.3-.4.3z"/><path id="XMLID_186_" class="st2" d="M354.8 120.7c-.2 0-.4-.2-.4-.4V118c0-.2.2-.4.4-.4s.4.2.4.4v2.4c0 .2-.2.3-.4.3z"/><path id="XMLID_185_" class="st2" d="M369.2 120.7c-.2 0-.4-.2-.4-.4V118c0-.2.2-.4.4-.4s.4.2.4.4v2.4c.1.2-.1.3-.4.3z"/><path id="XMLID_184_" class="st2" d="M383.6 120.7c-.2 0-.4-.2-.4-.4V118c0-.2.2-.4.4-.4s.4.2.4.4v2.4c.1.2-.1.3-.4.3z"/><path id="XMLID_183_" class="st2" d="M398.1 120.7c-.2 0-.4-.2-.4-.4V118c0-.2.2-.4.4-.4s.4.2.4.4v2.4c0 .2-.2.3-.4.3z"/><path id="XMLID_182_" class="st2" d="M412.5 120.7c-.2 0-.4-.2-.4-.4V118c0-.2.2-.4.4-.4s.4.2.4.4v2.4c0 .2-.2.3-.4.3z"/><path id="XMLID_181_" class="st2" d="M426.9 120.7c-.2 0-.4-.2-.4-.4V118c0-.2.2-.4.4-.4s.4.2.4.4v2.4c.1.2-.1.3-.4.3z"/><path id="XMLID_180_" class="st2" d="M441.4 120.7c-.2 0-.4-.2-.4-.4V118c0-.2.2-.4.4-.4s.4.2.4.4v2.4c0 .2-.2.3-.4.3z"/><path id="XMLID_179_" class="st2" d="M455.8 120.7c-.2 0-.4-.2-.4-.4V118c0-.2.2-.4.4-.4s.4.2.4.4v2.4c0 .2-.2.3-.4.3z"/></g><g id="mouse_and_keyboard"><g id="XMLID_350_"><path id="XMLID_92_" class="st2" d="M66.8 442.8h62.5v4.5H66.8z"/><path id="XMLID_91_" class="st2" d="M56.4 423.4h6v6h-6z"/><path id="XMLID_90_" class="st2" d="M56.4 432.4h6v5.2h-6z"/><path id="XMLID_89_" class="st2" d="M66.1 423.4h6v6h-6z"/><path id="XMLID_88_" class="st2" d="M66.1 432.4h6v5.2h-6z"/><path id="XMLID_87_" class="st2" d="M75.8 423.4h6v6h-6z"/><path id="XMLID_86_" class="st2" d="M75.8 432.4h6v5.2h-6z"/><path id="XMLID_85_" class="st2" d="M84.7 423.4h6v6h-6z"/><path id="XMLID_84_" class="st2" d="M84.7 432.4h6v5.2h-6z"/><path id="XMLID_83_" class="st2" d="M94.4 423.4h6v6h-6z"/><path id="XMLID_82_" class="st2" d="M94.4 432.4h6v5.2h-6z"/><path id="XMLID_81_" class="st2" d="M104.1 423.4h6v6h-6z"/><path id="XMLID_80_" class="st2" d="M104.1 432.4h6v5.2h-6z"/><path id="XMLID_79_" class="st2" d="M114.5 423.4h5.2v6h-5.2z"/><path id="XMLID_78_" class="st2" d="M114.5 432.4h5.2v5.2h-5.2z"/><path id="XMLID_77_" class="st2" d="M123.4 423.4h5.2v6h-5.2z"/><path id="XMLID_76_" class="st2" d="M123.4 432.4h5.2v5.2h-5.2z"/><path id="XMLID_75_" class="st2" d="M133.1 423.4h6v6h-6z"/><path id="XMLID_74_" class="st2" d="M133.1 432.4h6v5.2h-6z"/></g><path id="XMLID_73_" class="st10" d="M358.6 345.1h-22c-9 0-16.4 6.5-16.4 14.6v1.7h-95.4c-5.8 0-10.5 4.7-10.5 10.5v4.4c0 5.8 4.7 10.5 10.5 10.5h41.9c4.4 0 7.9 3.6 7.9 7.9v3.2c0 4.4-3.6 7.9-7.9 7.9h-125c-7 0-10.5 2.6-10.5 7.7h2.5c0-2.5.9-5.1 7.9-5.1h125.1c5.8 0 10.5-4.7 10.5-10.5v-3.2c0-5.8-4.7-10.5-10.5-10.5h-41.9c-4.4 0-7.9-3.6-7.9-7.9v-4.4c0-4.4 3.6-7.9 7.9-7.9h95.4v-1.3H375v-3c0-8.1-7.3-14.6-16.4-14.6z"/><path id="XMLID_346_" class="st10" d="M151.4 456.9H42.8v-43.4h108.7v43.4h-.1zm-107-1.6h105.4v-40.1H44.4v40.1z"/></g><g id="pages"><g id="first_x5F_page"><path id="XMLID_70_" class="st4" d="M-36.2 137.8h252v162.5h-252z"/><path id="XMLID_17_" class="st11" d="M-36.3 300.5h193.1v.9H-36.3z"/></g><g id="second_x5F_page"><path id="XMLID_69_" class="st7" d="M156.7 137.9h158.2v162.6H156.7z"/><g id="XMLID_252_" class="st12"><path id="XMLID_16_" d="M240.4 300.7V313l74.4-12.1-9.1-.2z"/><path id="XMLID_15_" d="M228.5 300.7v8.8h-14.8l26.7 3.5v-12.3z"/><path id="XMLID_3_" d="M156.9 300.7v.7h-3l59.8 8.1h14.8v-8.8z"/></g></g><g id="third_x5F_page_1_"><path id="third_x5F_page" class="st7" d="M314 138h158.2v162.4H314z"/></g><g id="third_x5F_item"><path id="XMLID_59_" class="st13" d="M328.7 214.6h36.8v2.8h-36.8z"/><path id="XMLID_58_" class="st13" d="M374.3 214.6h36.8v2.8h-36.8z"/><path id="XMLID_57_" class="st13" d="M421.1 214.6h36.8v2.8h-36.8z"/><path id="XMLID_56_" class="st13" d="M328.7 272.2h36.8v2.8h-36.8z"/><path id="XMLID_55_" class="st13" d="M374.3 272.2h36.8v2.8h-36.8z"/><path id="XMLID_54_" class="st13" d="M421.1 272.2h36.8v2.8h-36.8z"/><path id="XMLID_53_" class="st13" d="M356.7 157.5h72.7v2.8h-72.7z"/></g><g id="second_x5F_item_x5F_1"><path id="XMLID_65_" class="st9" d="M173 163.3h29.7v29.8H173z"/><path id="XMLID_64_" class="st13" d="M212.5 165.2h29.7v4.9h-29.7z"/><path id="XMLID_63_" class="st9" d="M212.5 177.8h43.6v4.9h-43.6z"/><path id="XMLID_62_" class="st9" d="M212.5 186.5h43.6v4.9h-43.6z"/></g><g id="second_x5F_item_x5F_2"><path id="XMLID_61_" class="st9" d="M173 208.3h29.7v29.8H173z"/><path id="XMLID_60_" class="st13" d="M212.5 209.4h29.7v4.9h-29.7z"/><path id="XMLID_52_" class="st9" d="M212.5 222.1h43.6v4.9h-43.6z"/><path id="XMLID_51_" class="st9" d="M212.5 230.8h43.6v4.9h-43.6z"/></g><g id="second_x5F_item_x5F_3"><path id="XMLID_50_" class="st9" d="M173 255.5h29.7v29.8H173z"/><path id="XMLID_49_" class="st13" d="M212.5 256.7h29.7v4.9h-29.7z"/><path id="XMLID_48_" class="st9" d="M212.5 269.3h43.6v4.9h-43.6z"/><path id="XMLID_47_" class="st9" d="M212.5 278h43.6v4.9h-43.6z"/></g><g id="third_x5F_item_x29_2"><path id="XMLID_66_" class="st10" d="M328.5 174.4h36.9v36.9h-36.9z"/><path id="XMLID_46_" class="st10" d="M374.3 174.4h36.9v36.9h-36.9z"/><path id="XMLID_45_" class="st10" d="M421.2 174.4h36.9v36.9h-36.9z"/><path id="XMLID_44_" class="st10" d="M328.5 231.7h36.9v36.9h-36.9z"/><path id="XMLID_43_" class="st10" d="M374.3 231.7h36.9v36.9h-36.9z"/><path id="XMLID_42_" class="st10" d="M421.2 231.7h36.9v36.9h-36.9z"/></g><g id="controls"><g id="XMLID_286_"><path id="XMLID_38_" class="st14" d="M-24.8 145.1c0-1.6-1.3-3-3-3-1.6 0-3 1.3-3 3 0 1.6 1.3 3 3 3 1.6 0 3-1.4 3-3z"/><circle id="XMLID_37_" class="st15" cx="-18.1" cy="145.1" r="3"/><circle id="XMLID_36_" class="st16" cx="-9.2" cy="145.1" r="3"/></g></g><g id="first_x5F_banner"><path id="XMLID_67_" class="st2" d="M-16.4 164h151.7v46.3H-16.4z"/><path id="XMLID_40_" class="st4" d="M121.6 190.6l5-5-5-4.1z"/><path id="XMLID_39_" class="st4" d="M-3.8 190.6l-5-5 5-4.1z"/><path id="XMLID_32_" class="st9" d="M39.4 156.7h95.7v3H39.4z"/><path id="XMLID_31_" class="st9" d="M-16.5 156.7h34.1v3h-34.1z"/><g id="XMLID_273_"><circle id="XMLID_30_" class="st9" cx="48.5" cy="216.4" r="2.9"/><path id="XMLID_29_" class="st9" d="M62.3 216.4c0-1.6-1.3-2.9-2.9-2.9-1.6 0-2.9 1.3-2.9 2.9 0 1.6 1.3 2.9 2.9 2.9 1.7 0 2.9-1.3 2.9-2.9z"/><circle id="XMLID_28_" class="st9" cx="70.4" cy="216.4" r="2.9"/></g></g><g id="first_x5F_item_x5F_1"><g id="XMLID_279_"><path id="XMLID_33_" class="st2" d="M-16.3 228.6h44.4v40.5h-44.4z"/></g><path id="XMLID_27_" class="st13" d="M-11.5 235.7h33.8v4.5h-33.8z"/><path id="XMLID_26_" class="st17" d="M-11.5 248.8h33.8v3.2h-33.8z"/><path id="XMLID_25_" class="st17" d="M-11.5 254.6h26.2v3.2h-26.2z"/></g><g id="first_x5F_item_x5F_2"><g id="XMLID_281_"><path id="XMLID_34_" class="st2" d="M37.3 228.6h44.4v40.5H37.3z"/></g><path id="XMLID_24_" class="st13" d="M41.5 235.7h33.8v4.5H41.5z"/><path id="XMLID_23_" class="st17" d="M41.5 248.8h33.8v3.2H41.5z"/><path id="XMLID_22_" class="st17" d="M41.5 254.6h26.2v3.2H41.5z"/></g><g id="first_x5F_footer"><path id="XMLID_41_" class="st2" d="M-16.4 280.4h151.7v12.1H-16.4z"/><path id="XMLID_21_" class="st17" d="M-11.7 286.6h26.2v2.4h-26.2z"/></g><g id="first_x5F_item_x5F_3"><g id="XMLID_283_"><path id="XMLID_35_" class="st2" d="M90.9 228.6h44.4v40.5H90.9z"/></g><path id="XMLID_20_" class="st13" d="M94.4 235.7h33.8v4.5H94.4z"/><path id="XMLID_19_" class="st17" d="M94.4 248.8h33.8v3.2H94.4z"/><path id="XMLID_18_" class="st17" d="M94.4 254.6h26.2v3.2H94.4z"/></g></g></g><g id="devices"><g id="tablet_2_"><g id="XMLID_13_"><path id="XMLID_206_" class="st1" d="M-116.5 375.6c0 2.6 2.1 4.7 4.7 4.7H-6c2.6 0 4.7-2 4.7-4.6l.1-139c0-2.6-2.1-4.7-4.7-4.7l-105.8-.1c-1.2 0-2.4.5-3.3 1.4-.9.9-1.4 2.1-1.4 3.3l-.1 139z"/><path id="XMLID_14_" class="st4" d="M-11.4 241.4h-94.9V365h94.8z"/></g></g><g id="phone_2_"><path id="XMLID_8_" class="st0" d="M-93.9 376.2c0 3-2.2 5.4-4.9 5.4h-47.6c-2.7 0-4.8-2.4-4.8-5.4v-90.7c0-3 2.2-5.4 4.8-5.4h47.7c2.7 0 4.9 2.4 4.9 5.4v90.7h-.1z"/><path id="XMLID_7_" class="st7" d="M-146.7 288h48.1v77.3h-48.1z"/></g></g></svg>