<?xml version="1.0" encoding="utf-8"?>
<!-- Generator: Adobe Illustrator 19.0.0, SVG Export Plug-In . SVG Version: 6.00 Build 0)  -->
<svg version="1.1" id="Layer_1" xmlns="http://www.w3.org/2000/svg" xmlns:xlink="http://www.w3.org/1999/xlink" x="0px" y="0px"
	 viewBox="0 0 543 134.9" style="enable-background:new 0 0 543 134.9;" xml:space="preserve">
<style type="text/css">
	.st0{fill:#003B74;}
	.st1{fill:#003B74;stroke:#003B74;stroke-width:2;stroke-linejoin:round;stroke-miterlimit:10;}
</style>
<path id="XMLID_87_" class="st0" d="M461.7,104.4c3,0.3,5,0.6,7.5,0.9c0,3.3,0,6.5,0,10.2c-8.8,0-17.5,0-26.7,0c0-3.4,0-6.6,0-10.2
	c2-0.5,4.2-1,6.4-1.5c0-11.6,0-23,0-34.6c-2.3-0.3-4.2-0.6-6.6-0.9c0-3.4,0-6.7,0-10.6c6.2,0,12.4,0,19.3,0
	C461.7,73.1,461.7,88.5,461.7,104.4z"/>
<path id="XMLID_86_" class="st0" d="M476,57.6c5.5,0.1,10.6,5.4,10.5,11c-0.1,5.9-4.8,10.4-10.9,10.4c-6,0-10.7-4.5-10.8-10.5
	C464.7,62.7,470,57.5,476,57.6z"/>
<path id="XMLID_5_" class="st1" d="M42.5,113.3c-6,0-11.4-1.7-16.4-5.1c-4.9-3.4-8.8-8.1-11.7-14c-2.9-5.9-4.3-12.4-4.3-19.6
	c0-7.1,1.4-13.6,4.3-19.5c2.9-5.9,6.8-10.6,11.7-14c4.9-3.4,10.4-5.1,16.4-5.1c4.9,0,9.5,1.2,13.8,3.6c4.3,2.4,8,5.7,11.1,10.1
	L60,56c-2.2-3.1-4.8-5.5-7.8-7.1c-3-1.7-6.2-2.5-9.7-2.5c-4.2,0-8.1,1.2-11.6,3.7c-3.5,2.5-6.3,5.9-8.4,10.2
	c-2,4.3-3.1,9.1-3.1,14.3c0,5.3,1,10,3.1,14.4c2,4.3,4.8,7.8,8.4,10.2c3.5,2.5,7.4,3.7,11.6,3.7c3.5,0,6.7-0.8,9.7-2.5
	c3-1.7,5.6-4.1,7.8-7.1l7.4,6.3c-3,4.3-6.7,7.7-11.1,10.1C52,112.1,47.4,113.3,42.5,113.3z"/>
<path id="XMLID_7_" class="st1" d="M93.9,112.5c-4.3,0-8.2-1.2-11.8-3.7c-3.6-2.5-6.4-5.8-8.5-10c-2.1-4.2-3.1-8.9-3.1-14
	c0-5.1,1-9.8,3.1-14.1c2.1-4.3,4.9-7.6,8.5-10.1c3.6-2.5,7.5-3.7,11.8-3.7c4.3,0,8.2,1.2,11.8,3.7c3.6,2.5,6.4,5.8,8.5,10.1
	c2.1,4.3,3.1,8.9,3.1,14.1c0,5.1-1,9.8-3.1,14c-2.1,4.2-4.9,7.6-8.5,10C102.2,111.2,98.2,112.5,93.9,112.5z M93.9,67
	c-2.7,0-5.2,0.8-7.4,2.4c-2.2,1.6-3.9,3.7-5.2,6.4c-1.3,2.7-1.9,5.7-1.9,9c0,3.3,0.6,6.4,1.9,9.1c1.3,2.7,3,4.8,5.2,6.3
	c2.2,1.5,4.7,2.3,7.4,2.3c2.7,0,5.1-0.8,7.3-2.3c2.2-1.5,3.9-3.6,5.2-6.3c1.3-2.7,1.9-5.7,1.9-9.1c0-3.3-0.6-6.4-1.9-9
	c-1.3-2.7-3-4.8-5.2-6.4C99.1,67.7,96.6,67,93.9,67z"/>
<path id="XMLID_10_" class="st1" d="M168.3,40v71.6h-9v-4.8c-2,1.8-4.2,3.3-6.6,4.2c-2.5,1-5,1.5-7.7,1.5c-4.3,0-8.2-1.2-11.8-3.7
	c-3.6-2.5-6.4-5.8-8.5-10c-2.1-4.2-3.1-8.9-3.1-14c0-5.1,1-9.8,3.1-14.1c2.1-4.3,4.9-7.6,8.5-10.1c3.6-2.5,7.5-3.7,11.8-3.7
	c2.7,0,5.3,0.5,7.7,1.5c2.5,1,4.7,2.5,6.6,4.3V40H168.3z M152.2,100.1c2.2-1.5,3.9-3.6,5.2-6.3c1.3-2.7,1.9-5.7,1.9-9.1
	c0-3.3-0.6-6.4-1.9-9c-1.3-2.7-3-4.8-5.2-6.4c-2.2-1.6-4.6-2.4-7.3-2.4c-2.7,0-5.2,0.8-7.4,2.4c-2.2,1.6-3.9,3.7-5.2,6.4
	c-1.3,2.7-1.9,5.7-1.9,9c0,3.3,0.6,6.4,1.9,9.1c1.3,2.7,3,4.8,5.2,6.3c2.2,1.5,4.7,2.3,7.4,2.3C147.6,102.4,150,101.7,152.2,100.1z"
	/>
<path id="XMLID_13_" class="st1" d="M218.7,89.8h-35.9c0.9,3.8,2.5,6.8,5.1,9.2c2.5,2.4,5.5,3.5,8.8,3.5c2.1,0,4-0.5,5.8-1.4
	c1.8-0.9,3.3-2.3,4.7-4l6.9,6.5c-2.3,2.9-4.9,5.1-7.9,6.6c-3,1.5-6.2,2.3-9.5,2.3c-4.3,0-8.2-1.2-11.8-3.7c-3.6-2.5-6.4-5.8-8.5-10
	c-2.1-4.2-3.1-8.9-3.1-14c0-5.2,1-9.9,3-14.2c2-4.3,4.7-7.6,8.2-10c3.5-2.4,7.3-3.6,11.6-3.6c4.2,0,8.1,1.2,11.6,3.6
	c3.5,2.4,6.2,5.8,8.2,10c2,4.3,3,9,3,14.2V89.8z M209.2,79.7c-0.8-3.7-2.3-6.8-4.6-9.2c-2.3-2.4-5.1-3.6-8.6-3.6
	c-3.4,0-6.3,1.2-8.6,3.6c-2.3,2.4-3.8,5.5-4.6,9.2H209.2z"/>
<path id="XMLID_16_" class="st1" d="M234.3,48.3v21.3h18.4v10.3h-18.4v31.6H225V38h41.3v10.3H234.3z"/>
<path id="XMLID_18_" class="st1" d="M293.5,59.7c3.2,1.8,5.7,4.4,7.5,7.6c1.8,3.2,2.7,6.9,2.7,10.9v33.3h-9v-1.9
	c-3.3,1.9-6.9,2.9-11,2.9c-3.7,0-7.1-0.8-10.1-2.4c-3.1-1.6-5.5-3.7-7.3-6.4c-1.8-2.7-2.7-5.7-2.7-9c0-3.3,0.9-6.3,2.7-9
	c1.8-2.7,4.2-4.9,7.3-6.4c3.1-1.6,6.4-2.4,10.1-2.4c3.9,0,7.5,1,11,2.9v-1.5c0-3.3-1.1-6-3.4-8.1c-2.2-2.1-5.1-3.2-8.5-3.2
	c-2.1,0-4.1,0.5-5.8,1.4c-1.7,0.9-3.1,2.2-4.2,3.7l-7.4-5.8c1.9-2.9,4.4-5.2,7.4-6.9c3-1.6,6.4-2.5,10-2.5
	C286.7,56.9,290.3,57.9,293.5,59.7z M291.5,100.2c2.1-1.5,3.2-3.3,3.2-5.5c0-2.2-1.1-4-3.2-5.5c-2.1-1.5-4.7-2.2-7.7-2.2
	c-3.1,0-5.7,0.8-7.8,2.3c-2.1,1.5-3.2,3.4-3.2,5.5c0,2.1,1.1,3.9,3.2,5.5c2.1,1.5,4.8,2.3,7.8,2.3
	C286.7,102.4,289.3,101.7,291.5,100.2z"/>
<path id="XMLID_21_" class="st1" d="M333.6,112.5c-4.4,0-8.3-1.2-11.9-3.7c-3.6-2.5-6.4-5.8-8.5-10c-2.1-4.2-3.1-8.9-3.1-14
	c0-5.1,1-9.8,3.1-14.1c2.1-4.3,4.9-7.6,8.5-10.1c3.6-2.5,7.6-3.7,11.9-3.7c3.4,0,6.6,0.8,9.6,2.3c3,1.5,5.6,3.7,7.8,6.6l-6.8,6.5
	c-2.9-3.6-6.4-5.4-10.6-5.4c-2.7,0-5.2,0.8-7.4,2.4c-2.2,1.6-4,3.7-5.2,6.4c-1.3,2.7-1.9,5.7-1.9,9c0,3.3,0.6,6.4,1.9,9.1
	c1.3,2.7,3,4.8,5.2,6.3c2.2,1.5,4.7,2.3,7.4,2.3c4.2,0,7.7-1.8,10.6-5.4l6.8,6.5c-2.2,2.9-4.8,5.1-7.8,6.6
	C340.2,111.7,337,112.5,333.6,112.5z"/>
<path id="XMLID_23_" class="st1" d="M389.8,109.2c-2.8,2.2-6,3.3-9.4,3.3c-3.1,0-6-0.9-8.6-2.6c-2.6-1.7-4.6-4.1-6.1-7.2
	c-1.5-3-2.3-6.4-2.3-10.1V67.8h-8.4v-10h8.4V40h9v17.8h12.9v10h-12.9v24.8c0,2.8,0.8,5.1,2.3,7c1.5,1.9,3.4,2.8,5.7,2.8
	c1.6,0,3-0.5,4.2-1.4L389.8,109.2z"/>
<path id="XMLID_25_" class="st1" d="M415.4,112.5c-4.3,0-8.2-1.2-11.8-3.7c-3.6-2.5-6.4-5.8-8.5-10c-2.1-4.2-3.1-8.9-3.1-14
	c0-5.1,1-9.8,3.1-14.1c2.1-4.3,4.9-7.6,8.5-10.1c3.6-2.5,7.5-3.7,11.8-3.7c4.3,0,8.2,1.2,11.8,3.7c3.6,2.5,6.4,5.8,8.5,10.1
	c2.1,4.3,3.1,8.9,3.1,14.1c0,5.1-1,9.8-3.1,14c-2.1,4.2-4.9,7.6-8.5,10C423.7,111.2,419.7,112.5,415.4,112.5z M415.4,67
	c-2.7,0-5.2,0.8-7.4,2.4c-2.2,1.6-3.9,3.7-5.2,6.4c-1.3,2.7-1.9,5.7-1.9,9c0,3.3,0.6,6.4,1.9,9.1c1.3,2.7,3,4.8,5.2,6.3
	c2.2,1.5,4.7,2.3,7.4,2.3c2.7,0,5.1-0.8,7.3-2.3c2.2-1.5,3.9-3.6,5.2-6.3c1.3-2.7,1.9-5.7,1.9-9.1c0-3.3-0.6-6.4-1.9-9
	c-1.3-2.7-3-4.8-5.2-6.4C420.6,67.7,418.1,67,415.4,67z"/>
<path id="XMLID_30_" class="st1" d="M535,57.9l-21.4,61c-1.5,4.5-3.7,8.3-6.4,11.4c-2.7,3.1-6.3,4.7-10.6,4.7c-2.7,0-5.2-0.7-7.5-2
	l4.1-8.9c1,0.6,2.2,0.9,3.4,0.9c1.4,0,2.9-0.6,4.3-1.7c1.5-1.1,2.9-3.8,4.2-7.9v-0.1l1.6-4.4l-18.5-52.9h9.7l13.7,39.1l13.7-39.1
	H535z"/>
</svg>
