<?xml version="1.0" encoding="utf-8"?>
<!-- Generator: Adobe Illustrator 19.0.0, SVG Export Plug-In . SVG Version: 6.00 Build 0)  -->
<svg version="1.1" xmlns="http://www.w3.org/2000/svg" xmlns:xlink="http://www.w3.org/1999/xlink" x="0px" y="0px"
	 viewBox="0 0 639 406" style="enable-background:new 0 0 639 406;" xml:space="preserve">
<style type="text/css">
	.st0{fill:#003B74;}
	.st1{fill:#C6D5D5;}
	.st2{fill:#AFD7E8;}
	.st3{fill:#DDE6E6;}
	.st4{fill:#FFFFFF;}
	.st5{fill:#B2C4CB;}
	.st6{fill:#9AB1B7;}
	.st7{fill:#E5F2F7;}
	.st8{fill:#FCDED4;}
	.st9{fill:#A0D0E4;}
	.st10{fill:#B7DCEB;}
	.st11{fill:#4DAABF;}
	.st12{fill:#DE5A63;}
	.st13{fill:#FFDD00;}
	.st14{fill:#A1B400;}
	.st15{fill:#6BB6D5;}
	.st16{opacity:0.3;}
</style>
<g id="Layer_1">
	<g id="monitor">
		<path id="XMLID_205_" class="st0" d="M400.3,42.5c0-3.5-2.8-6.3-6.3-6.3H106.9c-3.4,0-6.2,2.8-6.2,6.3v199.6h299.7V42.5z"/>
		<path id="XMLID_204_" class="st1" d="M100.6,242.2v8.9c0,3.5,2.8,6.3,6.2,6.3h287.2c3.5,0,6.3-2.8,6.3-6.3v-8.9H100.6L100.6,242.2
			z"/>
		<rect id="XMLID_203_" x="112.5" y="47.8" class="st2" width="275.9" height="183.6"/>
		<path id="XMLID_202_" class="st3" d="M294.8,286.6c0-10.3,0.2-28.8,0.2-28.8h-79.2c0,0,0.5,18.1,0.5,28.8H294.8L294.8,286.6z"/>
		<path id="XMLID_201_" class="st1" d="M216.3,286.6c-4.7,2.4-20.6,10.5-20.7,11.2h119.6c-0.1-0.6-0.4-1.3-1-1.6
			c-8.9-3.7-11-5.1-19.4-9.6H216.3z"/>
		<rect id="XMLID_200_" x="196.5" y="300.7" class="st0" width="117.5" height="3.9"/>
		<path id="XMLID_199_" class="st4" d="M195.6,297.8c-0.1,0.5-0.1,0.9,0.1,1.4c0.4,1.1,1.4,1.8,2.5,1.8h114.3c1.2,0,2.2-0.7,2.6-1.8
			c0.2-0.5,0.2-0.9,0.1-1.4H195.6z"/>
		<polygon id="XMLID_198_" class="st5" points="295,257.4 215.9,257.4 215.9,257.8 295,257.8 295,257.4 		"/>
		<polygon id="XMLID_197_" class="st5" points="295,257.4 215.9,257.4 215.9,257.4 295,257.4 295,257.4 		"/>
		<polygon id="XMLID_196_" class="st6" points="295,257.8 215.9,257.8 215.9,261.2 295,261.2 295,257.8 		"/>
	</g>
	<g id="ruler_1_">
		<polygon id="XMLID_195_" class="st7" points="623.2,43.9 623.2,24.5 418.4,24.7 418.5,44 623.2,43.9 		"/>
		<polygon id="XMLID_194_" class="st8" points="623.2,24.9 623.2,24.9 623.2,38.4 623.4,38.4 623.2,24.9 		"/>
		<polygon id="XMLID_193_" class="st9" points="623.2,24.9 419.8,24.9 419.8,38.4 623.2,38.4 623.2,24.9 		"/>
		<path id="XMLID_192_" class="st2" d="M428.2,42.7c-0.2,0-0.4-0.2-0.4-0.4V40c0-0.2,0.2-0.4,0.4-0.4c0.2,0,0.4,0.2,0.4,0.4v2.4
			C428.7,42.6,428.5,42.7,428.2,42.7z"/>
		<path id="XMLID_191_" class="st2" d="M442.6,42.7c-0.2,0-0.4-0.2-0.4-0.4V40c0-0.2,0.2-0.4,0.4-0.4c0.2,0,0.4,0.2,0.4,0.4v2.4
			C443.1,42.6,442.9,42.7,442.6,42.7z"/>
		<path id="XMLID_190_" class="st2" d="M457.1,42.7c-0.2,0-0.4-0.2-0.4-0.4V40c0-0.2,0.2-0.4,0.4-0.4c0.2,0,0.4,0.2,0.4,0.4v2.4
			C457.5,42.6,457.3,42.7,457.1,42.7z"/>
		<path id="XMLID_189_" class="st2" d="M471.5,42.7c-0.2,0-0.4-0.2-0.4-0.4V40c0-0.2,0.2-0.4,0.4-0.4c0.2,0,0.4,0.2,0.4,0.4v2.4
			C471.9,42.6,471.7,42.7,471.5,42.7z"/>
		<path id="XMLID_188_" class="st2" d="M485.9,42.7c-0.2,0-0.4-0.2-0.4-0.4V40c0-0.2,0.2-0.4,0.4-0.4c0.2,0,0.4,0.2,0.4,0.4v2.4
			C486.4,42.6,486.2,42.7,485.9,42.7z"/>
		<path id="XMLID_187_" class="st2" d="M500.4,42.7c-0.2,0-0.4-0.2-0.4-0.4V40c0-0.2,0.2-0.4,0.4-0.4c0.2,0,0.4,0.2,0.4,0.4v2.4
			C500.8,42.6,500.6,42.7,500.4,42.7z"/>
		<path id="XMLID_186_" class="st2" d="M514.8,42.7c-0.2,0-0.4-0.2-0.4-0.4V40c0-0.2,0.2-0.4,0.4-0.4c0.2,0,0.4,0.2,0.4,0.4v2.4
			C515.2,42.6,515,42.7,514.8,42.7z"/>
		<path id="XMLID_185_" class="st2" d="M529.2,42.7c-0.2,0-0.4-0.2-0.4-0.4V40c0-0.2,0.2-0.4,0.4-0.4c0.2,0,0.4,0.2,0.4,0.4v2.4
			C529.7,42.6,529.5,42.7,529.2,42.7z"/>
		<path id="XMLID_184_" class="st2" d="M543.6,42.7c-0.2,0-0.4-0.2-0.4-0.4V40c0-0.2,0.2-0.4,0.4-0.4c0.2,0,0.4,0.2,0.4,0.4v2.4
			C544.1,42.6,543.9,42.7,543.6,42.7z"/>
		<path id="XMLID_183_" class="st2" d="M558.1,42.7c-0.2,0-0.4-0.2-0.4-0.4V40c0-0.2,0.2-0.4,0.4-0.4c0.2,0,0.4,0.2,0.4,0.4v2.4
			C558.5,42.6,558.3,42.7,558.1,42.7z"/>
		<path id="XMLID_182_" class="st2" d="M572.5,42.7c-0.2,0-0.4-0.2-0.4-0.4V40c0-0.2,0.2-0.4,0.4-0.4c0.2,0,0.4,0.2,0.4,0.4v2.4
			C572.9,42.6,572.7,42.7,572.5,42.7z"/>
		<path id="XMLID_181_" class="st2" d="M586.9,42.7c-0.2,0-0.4-0.2-0.4-0.4V40c0-0.2,0.2-0.4,0.4-0.4c0.2,0,0.4,0.2,0.4,0.4v2.4
			C587.4,42.6,587.2,42.7,586.9,42.7z"/>
		<path id="XMLID_180_" class="st2" d="M601.4,42.7c-0.2,0-0.4-0.2-0.4-0.4V40c0-0.2,0.2-0.4,0.4-0.4c0.2,0,0.4,0.2,0.4,0.4v2.4
			C601.8,42.6,601.6,42.7,601.4,42.7z"/>
		<path id="XMLID_179_" class="st2" d="M615.8,42.7c-0.2,0-0.4-0.2-0.4-0.4V40c0-0.2,0.2-0.4,0.4-0.4c0.2,0,0.4,0.2,0.4,0.4v2.4
			C616.2,42.6,616,42.7,615.8,42.7z"/>
	</g>
	<g id="mouse_and_keyboard">
		<g id="XMLID_350_">
			<rect id="XMLID_92_" x="226.8" y="364.8" class="st2" width="62.5" height="4.5"/>
			<rect id="XMLID_91_" x="216.4" y="345.4" class="st2" width="6" height="6"/>
			<rect id="XMLID_90_" x="216.4" y="354.4" class="st2" width="6" height="5.2"/>
			<rect id="XMLID_89_" x="226.1" y="345.4" class="st2" width="6" height="6"/>
			<rect id="XMLID_88_" x="226.1" y="354.4" class="st2" width="6" height="5.2"/>
			<rect id="XMLID_87_" x="235.8" y="345.4" class="st2" width="6" height="6"/>
			<rect id="XMLID_86_" x="235.8" y="354.4" class="st2" width="6" height="5.2"/>
			<rect id="XMLID_85_" x="244.7" y="345.4" class="st2" width="6" height="6"/>
			<rect id="XMLID_84_" x="244.7" y="354.4" class="st2" width="6" height="5.2"/>
			<rect id="XMLID_83_" x="254.4" y="345.4" class="st2" width="6" height="6"/>
			<rect id="XMLID_82_" x="254.4" y="354.4" class="st2" width="6" height="5.2"/>
			<rect id="XMLID_81_" x="264.1" y="345.4" class="st2" width="6" height="6"/>
			<rect id="XMLID_80_" x="264.1" y="354.4" class="st2" width="6" height="5.2"/>
			<rect id="XMLID_79_" x="274.5" y="345.4" class="st2" width="5.2" height="6"/>
			<rect id="XMLID_78_" x="274.5" y="354.4" class="st2" width="5.2" height="5.2"/>
			<rect id="XMLID_77_" x="283.4" y="345.4" class="st2" width="5.2" height="6"/>
			<rect id="XMLID_76_" x="283.4" y="354.4" class="st2" width="5.2" height="5.2"/>
			<rect id="XMLID_75_" x="293.1" y="345.4" class="st2" width="6" height="6"/>
			<rect id="XMLID_74_" x="293.1" y="354.4" class="st2" width="6" height="5.2"/>
		</g>
		<path id="XMLID_73_" class="st10" d="M518.6,267.1h-22c-9,0-16.4,6.5-16.4,14.6v1.7h-95.4c-5.8,0-10.5,4.7-10.5,10.5v4.4
			c0,5.8,4.7,10.5,10.5,10.5h41.9c4.4,0,7.9,3.6,7.9,7.9v3.2c0,4.4-3.6,7.9-7.9,7.9H301.7c-7,0-10.5,2.6-10.5,7.7h2.5
			c0-2.5,0.9-5.1,7.9-5.1h125.1c5.8,0,10.5-4.7,10.5-10.5v-3.2c0-5.8-4.7-10.5-10.5-10.5h-41.9c-4.4,0-7.9-3.6-7.9-7.9v-4.4
			c0-4.4,3.6-7.9,7.9-7.9h95.4v-1.3H535v-3C535,273.6,527.7,267.1,518.6,267.1z"/>
		<path id="XMLID_346_" class="st10" d="M311.4,378.9H202.8v-43.4h108.7V378.9z M204.4,377.3h105.4v-40.1H204.4V377.3z"/>
	</g>
	<g id="pages">
		<rect id="XMLID_70_" x="123.8" y="59.8" class="st4" width="252" height="162.5"/>
		<rect id="XMLID_69_" x="316.7" y="59.9" class="st7" width="158.2" height="162.6"/>
		<rect id="XMLID_68_" x="474" y="60" class="st7" width="158.2" height="162.4"/>
		<rect id="XMLID_67_" x="143.6" y="86" class="st2" width="151.7" height="46.3"/>
		<rect id="XMLID_66_" x="488.5" y="96.4" class="st10" width="36.9" height="36.9"/>
		<rect id="XMLID_65_" x="333" y="85.3" class="st9" width="29.7" height="29.8"/>
		<rect id="XMLID_64_" x="372.5" y="87.2" class="st11" width="29.7" height="4.9"/>
		<rect id="XMLID_63_" x="372.5" y="99.8" class="st9" width="43.6" height="4.9"/>
		<rect id="XMLID_62_" x="372.5" y="108.5" class="st9" width="43.6" height="4.9"/>
		<g id="XMLID_307_">
			<rect id="XMLID_61_" x="333" y="130.3" class="st9" width="29.7" height="29.8"/>
			<rect id="XMLID_60_" x="372.5" y="131.4" class="st11" width="29.7" height="4.9"/>
			<rect id="XMLID_59_" x="488.7" y="136.6" class="st11" width="36.8" height="2.8"/>
			<rect id="XMLID_58_" x="534.3" y="136.6" class="st11" width="36.8" height="2.8"/>
			<rect id="XMLID_57_" x="581.1" y="136.6" class="st11" width="36.8" height="2.8"/>
			<rect id="XMLID_56_" x="488.7" y="194.2" class="st11" width="36.8" height="2.8"/>
			<rect id="XMLID_55_" x="534.3" y="194.2" class="st11" width="36.8" height="2.8"/>
			<rect id="XMLID_54_" x="581.1" y="194.2" class="st11" width="36.8" height="2.8"/>
			<rect id="XMLID_53_" x="516.7" y="79.5" class="st11" width="72.7" height="2.8"/>
			<rect id="XMLID_52_" x="372.5" y="144.1" class="st9" width="43.6" height="4.9"/>
			<rect id="XMLID_51_" x="372.5" y="152.8" class="st9" width="43.6" height="4.9"/>
		</g>
		<g id="XMLID_300_">
			<rect id="XMLID_50_" x="333" y="177.5" class="st9" width="29.7" height="29.8"/>
			<rect id="XMLID_49_" x="372.5" y="178.7" class="st11" width="29.7" height="4.9"/>
			<rect id="XMLID_48_" x="372.5" y="191.3" class="st9" width="43.6" height="4.9"/>
			<rect id="XMLID_47_" x="372.5" y="200" class="st9" width="43.6" height="4.9"/>
		</g>
		<rect id="XMLID_46_" x="534.3" y="96.4" class="st10" width="36.9" height="36.9"/>
		<rect id="XMLID_45_" x="581.2" y="96.4" class="st10" width="36.9" height="36.9"/>
		<rect id="XMLID_44_" x="488.5" y="153.7" class="st10" width="36.9" height="36.9"/>
		<rect id="XMLID_43_" x="534.3" y="153.7" class="st10" width="36.9" height="36.9"/>
		<rect id="XMLID_42_" x="581.2" y="153.7" class="st10" width="36.9" height="36.9"/>
		<rect id="XMLID_41_" x="143.6" y="202.4" class="st2" width="151.7" height="12.1"/>
		<polygon id="XMLID_40_" class="st4" points="281.6,112.6 286.6,107.6 281.6,103.5 		"/>
		<polygon id="XMLID_39_" class="st4" points="156.2,112.6 151.2,107.6 156.2,103.5 		"/>
		<g id="XMLID_285_">
			<g id="XMLID_286_">
				<path id="XMLID_38_" class="st12" d="M135.2,67.1c0-1.6-1.3-3-3-3c-1.6,0-3,1.3-3,3c0,1.6,1.3,3,3,3
					C133.8,70.1,135.2,68.7,135.2,67.1z"/>
				<circle id="XMLID_37_" class="st13" cx="141.9" cy="67.1" r="3"/>
				<circle id="XMLID_36_" class="st14" cx="150.8" cy="67.1" r="3"/>
			</g>
		</g>
		<g id="XMLID_283_">
			<rect id="XMLID_35_" x="250.9" y="150.6" class="st2" width="44.4" height="40.5"/>
		</g>
		<g id="XMLID_281_">
			<rect id="XMLID_34_" x="197.3" y="150.6" class="st2" width="44.4" height="40.5"/>
		</g>
		<g id="XMLID_279_">
			<rect id="XMLID_33_" x="143.7" y="150.6" class="st2" width="44.4" height="40.5"/>
		</g>
		<rect id="XMLID_32_" x="199.4" y="78.7" class="st9" width="95.7" height="3"/>
		<rect id="XMLID_31_" x="143.5" y="78.7" class="st9" width="34.1" height="3"/>
		<g id="XMLID_273_">
			<circle id="XMLID_30_" class="st9" cx="208.5" cy="138.4" r="2.9"/>
			<path id="XMLID_29_" class="st9" d="M222.3,138.4c0-1.6-1.3-2.9-2.9-2.9c-1.6,0-2.9,1.3-2.9,2.9c0,1.6,1.3,2.9,2.9,2.9
				C221.1,141.3,222.3,140,222.3,138.4z"/>
			<circle id="XMLID_28_" class="st9" cx="230.4" cy="138.4" r="2.9"/>
		</g>
		<rect id="XMLID_27_" x="148.5" y="157.7" class="st11" width="33.8" height="4.5"/>
		<rect id="XMLID_26_" x="148.5" y="170.8" class="st15" width="33.8" height="3.2"/>
		<rect id="XMLID_25_" x="148.5" y="176.6" class="st15" width="26.2" height="3.2"/>
		<rect id="XMLID_24_" x="201.5" y="157.7" class="st11" width="33.8" height="4.5"/>
		<rect id="XMLID_23_" x="201.5" y="170.8" class="st15" width="33.8" height="3.2"/>
		<rect id="XMLID_22_" x="201.5" y="176.6" class="st15" width="26.2" height="3.2"/>
		<rect id="XMLID_21_" x="148.3" y="208.6" class="st15" width="26.2" height="2.4"/>
		<rect id="XMLID_20_" x="254.4" y="157.7" class="st11" width="33.8" height="4.5"/>
		<rect id="XMLID_19_" x="254.4" y="170.8" class="st15" width="33.8" height="3.2"/>
		<rect id="XMLID_18_" x="254.4" y="176.6" class="st15" width="26.2" height="3.2"/>
		<rect id="XMLID_17_" x="123.7" y="222.5" class="st16" width="193.1" height="0.9"/>
		<g id="XMLID_252_" class="st16">
			<polygon id="XMLID_16_" points="400.4,222.7 400.4,235 400.4,235 474.8,222.9 465.7,222.7 400.4,222.7 			"/>
			<polygon id="XMLID_15_" points="388.5,222.7 388.5,231.5 373.7,231.5 400.4,235 400.4,222.7 388.5,222.7 			"/>
			<polygon id="XMLID_3_" points="316.9,222.7 316.9,223.4 313.9,223.4 373.7,231.5 388.5,231.5 388.5,222.7 316.9,222.7 			"/>
		</g>
	</g>
</g>
<g id="Layer_2">
	<g id="tablet_2_">
		<g id="XMLID_13_">
			<path id="XMLID_206_" class="st1" d="M43.5,297.6c0,2.6,2.1,4.7,4.7,4.7H154c2.6,0,4.7-2,4.7-4.6l0.1-139c0-2.6-2.1-4.7-4.7-4.7
				l-105.8-0.1c-1.2,0-2.4,0.5-3.3,1.4c-0.9,0.9-1.4,2.1-1.4,3.3L43.5,297.6z"/>
			<polygon id="XMLID_14_" class="st4" points="148.6,163.4 53.7,163.4 53.7,287 148.5,287 			"/>
		</g>
	</g>
	<g id="phone_2_">
		<path id="XMLID_8_" class="st0" d="M66.1,298.2c0,3-2.2,5.4-4.9,5.4H13.6c-2.7,0-4.8-2.4-4.8-5.4v-90.7c0-3,2.2-5.4,4.8-5.4h47.7
			c2.7,0,4.9,2.4,4.9,5.4V298.2z"/>
		<rect id="XMLID_7_" x="13.3" y="210" class="st7" width="48.1" height="77.3"/>
	</g>
</g>
</svg>
