<?xml version="1.0" encoding="utf-8"?>
<!-- Generator: Adobe Illustrator 19.0.0, SVG Export Plug-In . SVG Version: 6.00 Build 0)  -->
<svg version="1.1" id="main-image-bg" xmlns="http://www.w3.org/2000/svg" xmlns:xlink="http://www.w3.org/1999/xlink" x="0px"
	 y="0px" viewBox="-160 78 639 406" style="enable-background:new -160 78 639 406;" xml:space="preserve">
<style type="text/css">
	.st0{fill:#003B74;}
	.st1{fill:#C6D5D5;}
	.st2{fill:#AFD7E8;}
	.st3{fill:#DDE6E6;}
	.st4{fill:#FFFFFF;}
	.st5{fill:#B2C4CB;}
	.st6{fill:#9AB1B7;}
	.st7{fill:#E5F2F7;}
	.st8{fill:#FCDED4;}
	.st9{fill:#A0D0E4;}
	.st10{fill:#B7DCEB;}
	.st11{opacity:0.3;enable-background:new    ;}
	.st12{opacity:0.3;}
	.st13{fill:#4DAABF;}
	.st14{fill:#DE5A63;}
	.st15{fill:#FFDD00;}
	.st16{fill:#A1B400;}
	.st17{fill:#6BB6D5;}
</style>
<g id="computer">
	<g id="monitor">
		<path id="XMLID_205_" class="st0" d="M240.3,120.5c0-3.5-2.8-6.3-6.3-6.3H-53.1c-3.4,0-6.2,2.8-6.2,6.3v199.6h299.7V120.5H240.3z"
			/>
		<path id="XMLID_204_" class="st1" d="M-59.4,320.2v8.9c0,3.5,2.8,6.3,6.2,6.3H234c3.5,0,6.3-2.8,6.3-6.3v-8.9H-59.4L-59.4,320.2z"
			/>
		<rect id="XMLID_203_" x="-47.5" y="125.8" class="st2" width="275.9" height="183.6"/>
		<path id="XMLID_202_" class="st3" d="M134.8,364.6c0-10.3,0.2-28.8,0.2-28.8H55.8c0,0,0.5,18.1,0.5,28.8H134.8L134.8,364.6z"/>
		<path id="XMLID_201_" class="st1" d="M56.3,364.6c-4.7,2.4-20.6,10.5-20.7,11.2h119.6c-0.1-0.6-0.4-1.3-1-1.6
			c-8.9-3.7-11-5.1-19.4-9.6H56.3z"/>
		<rect id="XMLID_200_" x="36.5" y="378.7" class="st0" width="117.5" height="3.9"/>
		<path id="XMLID_199_" class="st4" d="M35.6,375.8c-0.1,0.5-0.1,0.9,0.1,1.4c0.4,1.1,1.4,1.8,2.5,1.8h114.3c1.2,0,2.2-0.7,2.6-1.8
			c0.2-0.5,0.2-0.9,0.1-1.4H35.6z"/>
		<polygon id="XMLID_198_" class="st5" points="135,335.4 55.9,335.4 55.9,335.8 135,335.8 		"/>
		<polygon id="XMLID_197_" class="st5" points="135,335.4 55.9,335.4 55.9,335.4 135,335.4 		"/>
		<polygon id="XMLID_196_" class="st6" points="135,335.8 55.9,335.8 55.9,339.2 135,339.2 		"/>
	</g>
	<g id="ruler_1_">
		<polygon id="XMLID_195_" class="st7" points="463.2,121.9 463.2,102.5 258.4,102.7 258.5,122 		"/>
		<polygon id="XMLID_194_" class="st8" points="463.2,102.9 463.2,102.9 463.2,116.4 463.4,116.4 		"/>
		<polygon id="XMLID_193_" class="st9" points="463.2,102.9 259.8,102.9 259.8,116.4 463.2,116.4 		"/>
		<path id="XMLID_192_" class="st2" d="M268.2,120.7c-0.2,0-0.4-0.2-0.4-0.4V118c0-0.2,0.2-0.4,0.4-0.4c0.2,0,0.4,0.2,0.4,0.4v2.4
			C268.7,120.6,268.5,120.7,268.2,120.7z"/>
		<path id="XMLID_191_" class="st2" d="M282.6,120.7c-0.2,0-0.4-0.2-0.4-0.4V118c0-0.2,0.2-0.4,0.4-0.4c0.2,0,0.4,0.2,0.4,0.4v2.4
			C283.1,120.6,282.9,120.7,282.6,120.7z"/>
		<path id="XMLID_190_" class="st2" d="M297.1,120.7c-0.2,0-0.4-0.2-0.4-0.4V118c0-0.2,0.2-0.4,0.4-0.4c0.2,0,0.4,0.2,0.4,0.4v2.4
			C297.5,120.6,297.3,120.7,297.1,120.7z"/>
		<path id="XMLID_189_" class="st2" d="M311.5,120.7c-0.2,0-0.4-0.2-0.4-0.4V118c0-0.2,0.2-0.4,0.4-0.4c0.2,0,0.4,0.2,0.4,0.4v2.4
			C311.9,120.6,311.7,120.7,311.5,120.7z"/>
		<path id="XMLID_188_" class="st2" d="M325.9,120.7c-0.2,0-0.4-0.2-0.4-0.4V118c0-0.2,0.2-0.4,0.4-0.4c0.2,0,0.4,0.2,0.4,0.4v2.4
			C326.4,120.6,326.2,120.7,325.9,120.7z"/>
		<path id="XMLID_187_" class="st2" d="M340.4,120.7c-0.2,0-0.4-0.2-0.4-0.4V118c0-0.2,0.2-0.4,0.4-0.4c0.2,0,0.4,0.2,0.4,0.4v2.4
			C340.8,120.6,340.6,120.7,340.4,120.7z"/>
		<path id="XMLID_186_" class="st2" d="M354.8,120.7c-0.2,0-0.4-0.2-0.4-0.4V118c0-0.2,0.2-0.4,0.4-0.4s0.4,0.2,0.4,0.4v2.4
			C355.2,120.6,355,120.7,354.8,120.7z"/>
		<path id="XMLID_185_" class="st2" d="M369.2,120.7c-0.2,0-0.4-0.2-0.4-0.4V118c0-0.2,0.2-0.4,0.4-0.4s0.4,0.2,0.4,0.4v2.4
			C369.7,120.6,369.5,120.7,369.2,120.7z"/>
		<path id="XMLID_184_" class="st2" d="M383.6,120.7c-0.2,0-0.4-0.2-0.4-0.4V118c0-0.2,0.2-0.4,0.4-0.4s0.4,0.2,0.4,0.4v2.4
			C384.1,120.6,383.9,120.7,383.6,120.7z"/>
		<path id="XMLID_183_" class="st2" d="M398.1,120.7c-0.2,0-0.4-0.2-0.4-0.4V118c0-0.2,0.2-0.4,0.4-0.4s0.4,0.2,0.4,0.4v2.4
			C398.5,120.6,398.3,120.7,398.1,120.7z"/>
		<path id="XMLID_182_" class="st2" d="M412.5,120.7c-0.2,0-0.4-0.2-0.4-0.4V118c0-0.2,0.2-0.4,0.4-0.4s0.4,0.2,0.4,0.4v2.4
			C412.9,120.6,412.7,120.7,412.5,120.7z"/>
		<path id="XMLID_181_" class="st2" d="M426.9,120.7c-0.2,0-0.4-0.2-0.4-0.4V118c0-0.2,0.2-0.4,0.4-0.4s0.4,0.2,0.4,0.4v2.4
			C427.4,120.6,427.2,120.7,426.9,120.7z"/>
		<path id="XMLID_180_" class="st2" d="M441.4,120.7c-0.2,0-0.4-0.2-0.4-0.4V118c0-0.2,0.2-0.4,0.4-0.4s0.4,0.2,0.4,0.4v2.4
			C441.8,120.6,441.6,120.7,441.4,120.7z"/>
		<path id="XMLID_179_" class="st2" d="M455.8,120.7c-0.2,0-0.4-0.2-0.4-0.4V118c0-0.2,0.2-0.4,0.4-0.4s0.4,0.2,0.4,0.4v2.4
			C456.2,120.6,456,120.7,455.8,120.7z"/>
	</g>
	<g id="mouse_and_keyboard">
		<g id="XMLID_350_">
			<rect id="XMLID_92_" x="66.8" y="442.8" class="st2" width="62.5" height="4.5"/>
			<rect id="XMLID_91_" x="56.4" y="423.4" class="st2" width="6" height="6"/>
			<rect id="XMLID_90_" x="56.4" y="432.4" class="st2" width="6" height="5.2"/>
			<rect id="XMLID_89_" x="66.1" y="423.4" class="st2" width="6" height="6"/>
			<rect id="XMLID_88_" x="66.1" y="432.4" class="st2" width="6" height="5.2"/>
			<rect id="XMLID_87_" x="75.8" y="423.4" class="st2" width="6" height="6"/>
			<rect id="XMLID_86_" x="75.8" y="432.4" class="st2" width="6" height="5.2"/>
			<rect id="XMLID_85_" x="84.7" y="423.4" class="st2" width="6" height="6"/>
			<rect id="XMLID_84_" x="84.7" y="432.4" class="st2" width="6" height="5.2"/>
			<rect id="XMLID_83_" x="94.4" y="423.4" class="st2" width="6" height="6"/>
			<rect id="XMLID_82_" x="94.4" y="432.4" class="st2" width="6" height="5.2"/>
			<rect id="XMLID_81_" x="104.1" y="423.4" class="st2" width="6" height="6"/>
			<rect id="XMLID_80_" x="104.1" y="432.4" class="st2" width="6" height="5.2"/>
			<rect id="XMLID_79_" x="114.5" y="423.4" class="st2" width="5.2" height="6"/>
			<rect id="XMLID_78_" x="114.5" y="432.4" class="st2" width="5.2" height="5.2"/>
			<rect id="XMLID_77_" x="123.4" y="423.4" class="st2" width="5.2" height="6"/>
			<rect id="XMLID_76_" x="123.4" y="432.4" class="st2" width="5.2" height="5.2"/>
			<rect id="XMLID_75_" x="133.1" y="423.4" class="st2" width="6" height="6"/>
			<rect id="XMLID_74_" x="133.1" y="432.4" class="st2" width="6" height="5.2"/>
		</g>
		<path id="XMLID_73_" class="st10" d="M358.6,345.1h-22c-9,0-16.4,6.5-16.4,14.6v1.7h-95.4c-5.8,0-10.5,4.7-10.5,10.5v4.4
			c0,5.8,4.7,10.5,10.5,10.5h41.9c4.4,0,7.9,3.6,7.9,7.9v3.2c0,4.4-3.6,7.9-7.9,7.9h-125c-7,0-10.5,2.6-10.5,7.7h2.5
			c0-2.5,0.9-5.1,7.9-5.1h125.1c5.8,0,10.5-4.7,10.5-10.5v-3.2c0-5.8-4.7-10.5-10.5-10.5h-41.9c-4.4,0-7.9-3.6-7.9-7.9v-4.4
			c0-4.4,3.6-7.9,7.9-7.9h95.4v-1.3H375v-3C375,351.6,367.7,345.1,358.6,345.1z"/>
		<path id="XMLID_346_" class="st10" d="M151.4,456.9H42.8v-43.4h108.7v43.4H151.4z M44.4,455.3h105.4v-40.1H44.4V455.3z"/>
	</g>
	<g id="pages">
		<g id="first_x5F_page">
			<rect id="XMLID_70_" x="-36.2" y="137.8" class="st4" width="252" height="162.5"/>
			<rect id="XMLID_17_" x="-36.3" y="300.5" class="st11" width="193.1" height="0.9"/>
		</g>
		<g id="second_x5F_page">
			<rect id="XMLID_69_" x="156.7" y="137.9" class="st7" width="158.2" height="162.6"/>
			<g id="XMLID_252_" class="st12">
				<polygon id="XMLID_16_" points="240.4,300.7 240.4,313 240.4,313 314.8,300.9 305.7,300.7 				"/>
				<polygon id="XMLID_15_" points="228.5,300.7 228.5,309.5 213.7,309.5 240.4,313 240.4,300.7 				"/>
				<polygon id="XMLID_3_" points="156.9,300.7 156.9,301.4 153.9,301.4 213.7,309.5 228.5,309.5 228.5,300.7 				"/>
			</g>
		</g>
		<g id="third_x5F_page_1_">
			<rect id="third_x5F_page" x="314" y="138" class="st7" width="158.2" height="162.4"/>
		</g>
		<g id="third_x5F_item">
			<rect id="XMLID_59_" x="328.7" y="214.6" class="st13" width="36.8" height="2.8"/>
			<rect id="XMLID_58_" x="374.3" y="214.6" class="st13" width="36.8" height="2.8"/>
			<rect id="XMLID_57_" x="421.1" y="214.6" class="st13" width="36.8" height="2.8"/>
			<rect id="XMLID_56_" x="328.7" y="272.2" class="st13" width="36.8" height="2.8"/>
			<rect id="XMLID_55_" x="374.3" y="272.2" class="st13" width="36.8" height="2.8"/>
			<rect id="XMLID_54_" x="421.1" y="272.2" class="st13" width="36.8" height="2.8"/>
			<rect id="XMLID_53_" x="356.7" y="157.5" class="st13" width="72.7" height="2.8"/>
		</g>
		<g id="second_x5F_item_x5F_1">
			<rect id="XMLID_65_" x="173" y="163.3" class="st9" width="29.7" height="29.8"/>
			<rect id="XMLID_64_" x="212.5" y="165.2" class="st13" width="29.7" height="4.9"/>
			<rect id="XMLID_63_" x="212.5" y="177.8" class="st9" width="43.6" height="4.9"/>
			<rect id="XMLID_62_" x="212.5" y="186.5" class="st9" width="43.6" height="4.9"/>
		</g>
		<g id="second_x5F_item_x5F_2">
			<rect id="XMLID_61_" x="173" y="208.3" class="st9" width="29.7" height="29.8"/>
			<rect id="XMLID_60_" x="212.5" y="209.4" class="st13" width="29.7" height="4.9"/>
			<rect id="XMLID_52_" x="212.5" y="222.1" class="st9" width="43.6" height="4.9"/>
			<rect id="XMLID_51_" x="212.5" y="230.8" class="st9" width="43.6" height="4.9"/>
		</g>
		<g id="second_x5F_item_x5F_3">
			<rect id="XMLID_50_" x="173" y="255.5" class="st9" width="29.7" height="29.8"/>
			<rect id="XMLID_49_" x="212.5" y="256.7" class="st13" width="29.7" height="4.9"/>
			<rect id="XMLID_48_" x="212.5" y="269.3" class="st9" width="43.6" height="4.9"/>
			<rect id="XMLID_47_" x="212.5" y="278" class="st9" width="43.6" height="4.9"/>
		</g>
		<g id="third_x5F_item_x29_2">
			<rect id="XMLID_66_" x="328.5" y="174.4" class="st10" width="36.9" height="36.9"/>
			<rect id="XMLID_46_" x="374.3" y="174.4" class="st10" width="36.9" height="36.9"/>
			<rect id="XMLID_45_" x="421.2" y="174.4" class="st10" width="36.9" height="36.9"/>
			<rect id="XMLID_44_" x="328.5" y="231.7" class="st10" width="36.9" height="36.9"/>
			<rect id="XMLID_43_" x="374.3" y="231.7" class="st10" width="36.9" height="36.9"/>
			<rect id="XMLID_42_" x="421.2" y="231.7" class="st10" width="36.9" height="36.9"/>
		</g>
		<g id="controls">
			<g id="XMLID_286_">
				<path id="XMLID_38_" class="st14" d="M-24.8,145.1c0-1.6-1.3-3-3-3c-1.6,0-3,1.3-3,3c0,1.6,1.3,3,3,3
					C-26.2,148.1-24.8,146.7-24.8,145.1z"/>
				<circle id="XMLID_37_" class="st15" cx="-18.1" cy="145.1" r="3"/>
				<circle id="XMLID_36_" class="st16" cx="-9.2" cy="145.1" r="3"/>
			</g>
		</g>
		<g id="first_x5F_banner">
			<rect id="XMLID_67_" x="-16.4" y="164" class="st2" width="151.7" height="46.3"/>
			<polygon id="XMLID_40_" class="st4" points="121.6,190.6 126.6,185.6 121.6,181.5 			"/>
			<polygon id="XMLID_39_" class="st4" points="-3.8,190.6 -8.8,185.6 -3.8,181.5 			"/>
			<rect id="XMLID_32_" x="39.4" y="156.7" class="st9" width="95.7" height="3"/>
			<rect id="XMLID_31_" x="-16.5" y="156.7" class="st9" width="34.1" height="3"/>
			<g id="XMLID_273_">
				<circle id="XMLID_30_" class="st9" cx="48.5" cy="216.4" r="2.9"/>
				<path id="XMLID_29_" class="st9" d="M62.3,216.4c0-1.6-1.3-2.9-2.9-2.9c-1.6,0-2.9,1.3-2.9,2.9c0,1.6,1.3,2.9,2.9,2.9
					C61.1,219.3,62.3,218,62.3,216.4z"/>
				<circle id="XMLID_28_" class="st9" cx="70.4" cy="216.4" r="2.9"/>
			</g>
		</g>
		<g id="first_x5F_item_x5F_1">
			<g id="XMLID_279_">
				<rect id="XMLID_33_" x="-16.3" y="228.6" class="st2" width="44.4" height="40.5"/>
			</g>
			<rect id="XMLID_27_" x="-11.5" y="235.7" class="st13" width="33.8" height="4.5"/>
			<rect id="XMLID_26_" x="-11.5" y="248.8" class="st17" width="33.8" height="3.2"/>
			<rect id="XMLID_25_" x="-11.5" y="254.6" class="st17" width="26.2" height="3.2"/>
		</g>
		<g id="first_x5F_item_x5F_2">
			<g id="XMLID_281_">
				<rect id="XMLID_34_" x="37.3" y="228.6" class="st2" width="44.4" height="40.5"/>
			</g>
			<rect id="XMLID_24_" x="41.5" y="235.7" class="st13" width="33.8" height="4.5"/>
			<rect id="XMLID_23_" x="41.5" y="248.8" class="st17" width="33.8" height="3.2"/>
			<rect id="XMLID_22_" x="41.5" y="254.6" class="st17" width="26.2" height="3.2"/>
		</g>
		<g id="first_x5F_footer">
			<rect id="XMLID_41_" x="-16.4" y="280.4" class="st2" width="151.7" height="12.1"/>
			<rect id="XMLID_21_" x="-11.7" y="286.6" class="st17" width="26.2" height="2.4"/>
		</g>
		<g id="first_x5F_item_x5F_3">
			<g id="XMLID_283_">
				<rect id="XMLID_35_" x="90.9" y="228.6" class="st2" width="44.4" height="40.5"/>
			</g>
			<rect id="XMLID_20_" x="94.4" y="235.7" class="st13" width="33.8" height="4.5"/>
			<rect id="XMLID_19_" x="94.4" y="248.8" class="st17" width="33.8" height="3.2"/>
			<rect id="XMLID_18_" x="94.4" y="254.6" class="st17" width="26.2" height="3.2"/>
		</g>
	</g>
</g>
<g id="devices">
	<g id="tablet_2_">
		<g id="XMLID_13_">
			<path id="XMLID_206_" class="st1" d="M-116.5,375.6c0,2.6,2.1,4.7,4.7,4.7H-6c2.6,0,4.7-2,4.7-4.6l0.1-139c0-2.6-2.1-4.7-4.7-4.7
				l-105.8-0.1c-1.2,0-2.4,0.5-3.3,1.4c-0.9,0.9-1.4,2.1-1.4,3.3L-116.5,375.6z"/>
			<polygon id="XMLID_14_" class="st4" points="-11.4,241.4 -106.3,241.4 -106.3,365 -11.5,365 			"/>
		</g>
	</g>
	<g id="phone_2_">
		<path id="XMLID_8_" class="st0" d="M-93.9,376.2c0,3-2.2,5.4-4.9,5.4h-47.6c-2.7,0-4.8-2.4-4.8-5.4v-90.7c0-3,2.2-5.4,4.8-5.4
			h47.7c2.7,0,4.9,2.4,4.9,5.4v90.7H-93.9z"/>
		<rect id="XMLID_7_" x="-146.7" y="288" class="st7" width="48.1" height="77.3"/>
	</g>
</g>
</svg>
